HIERARCHY
ROOT Hips
{
	OFFSET 0.000000 0.000000 0.000000
	CHANNELS 6 Xposition Yposition Zposition Zrotation Yrotation Xrotation 
	JOINT LeftUpLeg_virtual
	{
		OFFSET 0.000000 0.000000 0.000000
		CHANNELS 3 Zrotation Yrotation Xrotation
		JOINT LeftUpLeg
		{
			OFFSET 8.479694 -4.795517 -0.379053
			CHANNELS 3 Zrotation Yrotation Xrotation
			JOINT LeftLeg
			{
				OFFSET 0.485052 -32.551468 0.112863
				CHANNELS 3 Zrotation Yrotation Xrotation
				JOINT LeftFoot
				{
					OFFSET 0.438033 -32.635670 -3.012641
					CHANNELS 3 Zrotation Yrotation Xrotation
					JOINT LeftToeBase
					{
						OFFSET 0.970169 -13.225353 11.864223
						CHANNELS 3 Zrotation Yrotation Xrotation
						End Site
						{
							OFFSET 0.000000 0.000000 0.000000
						}
					}
				}
			}
		}
	}
	JOINT RightUpLeg_virtual
	{
		OFFSET 0.000000 0.000000 0.000000
		CHANNELS 3 Zrotation Yrotation Xrotation
		JOINT RightUpLeg
		{
			OFFSET -8.479694 -4.795517 -0.379053
			CHANNELS 3 Zrotation Yrotation Xrotation
			JOINT RightLeg
			{
				OFFSET -0.484100 -32.551483 0.112903
				CHANNELS 3 Zrotation Yrotation Xrotation
				JOINT RightFoot
				{
					OFFSET -0.438985 -32.635651 -3.012681
					CHANNELS 3 Zrotation Yrotation Xrotation
					JOINT RightToeBase
					{
						OFFSET -0.970169 -13.225354 11.864223
						CHANNELS 3 Zrotation Yrotation Xrotation
						End Site
						{
							OFFSET 0.000000 0.000000 0.000000
						}
					}
				}
			}
		}
	}
	JOINT Spine_virtual
	{
		OFFSET 0.000000 0.000000 0.000000
		CHANNELS 3 Zrotation Yrotation Xrotation
		JOINT Spine
		{
			OFFSET 0.000000 7.722015 1.166203
			CHANNELS 3 Zrotation Yrotation Xrotation
			JOINT Spine1
			{
				OFFSET 0.000000 12.024086 0.248766
				CHANNELS 3 Zrotation Yrotation Xrotation
				JOINT Spine2
				{
					OFFSET -0.000000 11.503036 -0.491240
					CHANNELS 3 Zrotation Yrotation Xrotation
					JOINT Neck_virtual
					{
						OFFSET 0.000000 0.000000 0.000000
						CHANNELS 3 Zrotation Yrotation Xrotation
						JOINT Neck
						{
							OFFSET 0.000000 18.430687 -3.123054
							CHANNELS 3 Zrotation Yrotation Xrotation
							JOINT Head
							{
								OFFSET -0.000000 9.051071 1.034021
								CHANNELS 3 Zrotation Yrotation Xrotation
								End Site
								{
									OFFSET 0.000000 0.000000 0.000000
								}
							}
						}
					}
					JOINT LeftShoulder_virtual
					{
						OFFSET 0.000000 0.000000 0.000000
						CHANNELS 3 Zrotation Yrotation Xrotation
						JOINT LeftShoulder
						{
							OFFSET 6.197824 13.665230 -4.064723
							CHANNELS 3 Zrotation Yrotation Xrotation
							JOINT LeftArm
							{
								OFFSET 7.778132 -0.187073 -1.709282
								CHANNELS 3 Zrotation Yrotation Xrotation
								JOINT LeftForeArm
								{
									OFFSET 21.954697 0.000000 -2.041093
									CHANNELS 3 Zrotation Yrotation Xrotation
									JOINT LeftHand
									{
										OFFSET 22.992908 0.000000 -0.870901
										CHANNELS 3 Zrotation Yrotation Xrotation
										End Site
										{
											OFFSET 0.000000 0.000000 0.000000
										}
									}
								}
							}
						}
					}
					JOINT RightShoulder_virtual
					{
						OFFSET 0.000000 0.000000 0.000000
						CHANNELS 3 Zrotation Yrotation Xrotation
						JOINT RightShoulder
						{
							OFFSET -6.197824 13.665230 -4.064723
							CHANNELS 3 Zrotation Yrotation Xrotation
							JOINT RightArm
							{
								OFFSET -7.778132 -0.187073 -1.709282
								CHANNELS 3 Zrotation Yrotation Xrotation
								JOINT RightForeArm
								{
									OFFSET -21.954697 0.000000 -2.041093
									CHANNELS 3 Zrotation Yrotation Xrotation
									JOINT RightHand
									{
										OFFSET -22.992908 0.000000 -0.870901
										CHANNELS 3 Zrotation Yrotation Xrotation
										End Site
										{
											OFFSET 0.000000 0.000000 0.000000
										}
									}
								}
							}
						}
					}
				}
			}
		}
	}
}
MOTION
Frames: 5
Frame Time: 0.033333
12.797290 81.318108 31.436596 179.802326 -4.503784 -179.154469 -4.226443 0.567247 15.523283 3.829556 -1.833846 -25.906730 2.304711 5.548009 22.751589 2.573631 -5.755609 -10.978561 0.000000 0.000000 0.000000 0.966359 0.099705 17.064107 -5.726549 -0.104657 -25.732878 -0.025698 8.729620 36.679591 8.242173 5.387744 -10.643886 0.000000 0.000000 0.000000 -0.051369 2.781636 6.222672 -1.664515 -0.534994 -1.899815 1.272095 -1.522236 7.436746 0.065879 -0.085664 0.101999 1.170464 -0.227389 7.714360 -0.880489 -0.701375 2.318262 0.000000 0.000000 0.000000 2.856368 0.392720 4.556082 2.711418 2.467113 -1.200768 -59.333676 -1.657425 -22.655784 -7.401327 -60.858092 10.172548 0.000000 0.000000 0.000000 -1.787798 2.075019 3.334960 7.556276 -5.088251 -2.715918 62.572169 -4.807345 -27.469597 -165.295291 71.668560 -169.676666 0.000000 0.000000 0.000000 
12.821319 81.325516 31.391850 179.800113 -4.615663 -179.115195 -4.291809 0.635001 15.585098 3.897190 -1.940016 -25.965502 2.325133 5.364644 22.673708 2.616947 -5.693528 -10.940133 0.000000 0.000000 0.000000 0.960720 0.012898 17.025578 -5.697956 -0.236875 -25.793639 0.020052 8.717027 36.830863 8.235182 5.414879 -10.621933 0.000000 0.000000 0.000000 -0.115314 2.769493 6.151431 -1.651760 -0.620711 -1.947877 1.290055 -1.538049 7.433437 0.003110 -0.082361 0.098637 1.148331 -0.400881 7.712912 -0.893068 -0.608103 2.277619 0.000000 0.000000 0.000000 2.880852 0.414835 4.633174 2.669579 2.480377 -1.166870 -59.355095 -1.776835 -22.542399 -7.504356 -60.978426 10.254704 0.000000 0.000000 0.000000 -1.775177 2.192041 3.419488 7.536009 -5.194011 -2.689393 62.721231 -4.775293 -27.412092 -164.832846 71.662932 -169.262319 0.000000 0.000000 0.000000 
12.851840 81.336929 31.333237 179.767683 -4.583275 -179.084309 -4.306594 0.599797 15.699690 3.943647 -1.932003 -26.064646 2.322063 5.445426 22.675755 2.683683 -5.626721 -10.889632 0.000000 0.000000 0.000000 0.945414 -0.005494 16.969537 -5.709297 -0.265137 -25.772838 0.047265 8.806192 36.902341 8.231987 5.444197 -10.608380 0.000000 0.000000 0.000000 -0.204084 2.765878 6.034132 -1.673367 -0.592048 -1.958342 1.292215 -1.481550 7.455000 -0.026111 -0.059638 0.132393 1.234431 -0.192021 7.692863 -0.809165 -0.644224 2.149921 0.000000 0.000000 0.000000 2.980841 0.446168 4.464522 2.587788 2.487405 -1.189189 -59.408576 -1.733527 -22.332490 -7.211303 -61.024714 9.993769 0.000000 0.000000 0.000000 -1.684772 2.139930 3.364562 7.490530 -5.152777 -2.794788 62.766652 -4.721408 -27.385089 -165.210446 71.647755 -169.645370 0.000000 0.000000 0.000000 
12.887099 81.351051 31.268826 179.729079 -4.625109 -179.153198 -4.342342 0.488652 15.676172 3.983068 -1.885839 -25.872338 2.271881 5.534108 22.663575 2.699353 -5.675993 -10.921592 0.000000 0.000000 0.000000 0.935141 -0.078243 16.966683 -5.726736 -0.289120 -25.611251 0.061711 8.876071 36.796623 8.211279 5.445641 -10.616931 0.000000 0.000000 0.000000 -0.278579 2.778382 6.096933 -1.724795 -0.609209 -2.059076 1.303469 -1.503982 7.405604 0.005084 0.073048 0.081248 1.328731 -0.096993 7.706158 -0.658805 -0.728830 2.228393 0.000000 0.000000 0.000000 2.987479 0.446794 4.599851 2.496046 2.480739 -1.156793 -59.498741 -1.724713 -22.450162 -7.466385 -61.078857 10.304481 0.000000 0.000000 0.000000 -1.659607 2.204584 3.345995 7.395567 -5.143191 -2.747462 62.786425 -4.590121 -27.224741 -164.719820 71.689604 -169.197446 0.000000 0.000000 0.000000 
12.920662 81.366478 31.201092 179.724147 -4.694257 -179.156436 -4.356768 0.490459 15.701206 4.037033 -1.854579 -25.883214 2.226857 5.467281 22.700475 2.760353 -5.683018 -10.896711 0.000000 0.000000 0.000000 0.952533 -0.127315 16.937949 -5.728961 -0.320874 -25.414214 0.084206 8.931995 36.586496 8.194602 5.443826 -10.659110 0.000000 0.000000 0.000000 -0.273548 2.763022 6.077662 -1.728848 -0.636696 -2.150609 1.313123 -1.388058 7.364607 -0.019473 0.001065 0.126229 1.342472 -0.097968 7.639143 -0.618226 -0.678627 2.220530 0.000000 0.000000 0.000000 3.003276 0.488680 4.454853 2.445300 2.567376 -1.145101 -59.588326 -1.547643 -22.473209 -7.453955 -61.089396 10.401369 0.000000 0.000000 0.000000 -1.615369 2.173381 3.303862 7.303846 -5.115938 -2.785825 62.763810 -4.311164 -27.102402 -164.833638 71.800301 -169.336208 0.000000 0.000000 0.000000 
